<svg xmlns="http://www.w3.org/2000/svg" width="53.396" height="77.23" viewBox="0 0 53.396 77.23"><path fill="#FFF" stroke="#757575" stroke-miterlimit="10" d="M47.637 38.857c2.05-3.546 3.242-7.648 3.242-12.038 0-13.313-10.794-24.107-24.105-24.107C13.462 2.713 2.67 13.506 2.67 26.82c0 4.39 1.19 8.49 3.242 12.037l19.61 35.42c.258.467.73.754 1.253.754.518 0 .993-.286 1.252-.753l19.61-35.42z"/><path fill="#C5C7C9" d="M20.612 20.51L27.1 9.273l6.488 11.237"/><path fill="#757575" d="M11.997 32.995l6.49-11.24 6.49 11.24"/><path fill="#FEBE10" d="M28.58 32.995l6.487-11.24 6.486 11.24"/><path fill="#FFE3A9" d="M33.265 21.756l-6.49 11.24-6.485-11.24"/><path fill="none" d="M8.227 36.283h37.097v8.63H8.227z"/><g fill="#252525"><path d="M15.307 41.23h-.643l-.208 1.978h-.89l.208-1.978h-.484l.08-.77h.483l.188-1.81h-.494l.08-.772h.494l.168-1.593h.89l-.168 1.593h.643l.168-1.593h.89l-.167 1.593h.504l-.08.77h-.503l-.188 1.81h.504l-.08.772h-.503l-.208 1.978h-.89l.207-1.978zm-.564-.77h.643l.188-1.81h-.643l-.187 1.81zM20.005 39.52l-.396 3.687h-1.494l-.77-6.922h1.057l.583 5.46.524-5.46h1.048l.544 5.498.563-5.498h.95l-.772 6.922H20.4l-.395-3.688zM23.162 36.286h1.087v6.922H23.16v-6.922zM26.01 38.195v5.013h-.98v-6.922h1.365l1.117 4.144v-4.144h.97v6.922h-1.117l-1.355-5.013zM30.73 36.208c1.057 0 1.6.633 1.6 1.74v.217h-1.027v-.286c0-.496-.198-.684-.544-.684s-.545.188-.545.683c0 1.423 2.126 1.69 2.126 3.667 0 1.107-.553 1.74-1.62 1.74-1.068 0-1.622-.633-1.622-1.74v-.425h1.028v.494c0 .494.217.672.563.672s.562-.178.562-.672c0-1.424-2.126-1.69-2.126-3.668 0-1.107.545-1.74 1.603-1.74zM33.637 37.157c.84 0 1.03-.406 1.197-.87h.73v6.92h-1.087v-5.28h-.84v-.77zM37.862 40.973v.643c0 .494.217.672.562.672.347 0 .564-.178.564-.672v-1.522c0-.495-.218-.683-.564-.683s-.562.19-.562.684v.207h-1.03l.2-4.014h2.866v.99H38.01l-.09 1.65c.198-.326.515-.504.95-.504.8 0 1.207.563 1.207 1.582v1.542c0 1.107-.555 1.74-1.622 1.74s-1.622-.633-1.622-1.74v-.573h1.03z"/></g></svg>